<svg xmlns="http://www.w3.org/2000/svg" xmlns:xlink="http://www.w3.org/1999/xlink" width="365" height="100" viewBox="0 0 365 100">
  <defs>
    <clipPath id="clip-path">
      <rect id="Rectangle_1" data-name="Rectangle 1" width="365" height="100" transform="translate(500 46)" fill="#fff" stroke="#707070" stroke-width="1"/>
    </clipPath>
  </defs>
  <g id="Mask_Group_1" data-name="Mask Group 1" transform="translate(-500 -46)" clip-path="url(#clip-path)">
    <g id="nyt_x5F_exporter_x5F_info" transform="translate(454.6 13.298)">
      <g id="Group_7" data-name="Group 7" transform="translate(45.4 45.068)">
        <g id="Group_6" data-name="Group 6" transform="translate(0 1.964)">
          <path id="Path_1" data-name="Path 1" d="M70.3,102.221H62.625L54.5,88.114,60.75,77.4l3.839,6.607-2.411,4.107Z" transform="translate(-46.375 -50.793)" fill="#97d700"/>
          <path id="Path_2" data-name="Path 2" d="M53.079,103.807H45.4L52.1,92.2l3.839,6.7Z" transform="translate(-45.4 -52.379)" fill="#97d700"/>
          <path id="Path_3" data-name="Path 3" d="M86.582,100.625H78.9L63.1,73.214,69.35,62.5l3.839,6.607-2.411,4.107Z" transform="translate(-47.296 -49.196)" fill="#97d700"/>
          <path id="Path_4" data-name="Path 4" d="M102.861,99.029H95.271L71.7,58.4l6.25-10.8,3.839,6.607-2.5,4.2Z" transform="translate(-48.218 -47.6)" fill="#97d700"/>
        </g>
        <path id="Path_5" data-name="Path 5" d="M125.432,98.793H111.593L84.182,51.471,80.7,45.4H94.45Z" transform="translate(-49.182 -45.4)" fill="#97d700"/>
      </g>
      <g id="Group_8" data-name="Group 8" transform="translate(141.204 112.925)">
        <path id="Path_6" data-name="Path 6" d="M161.9,129.289h-5.8l-1.071,2.054H152.7l5.089-9.643H160.2l5.089,9.643h-2.411ZM161,127.5l-1.964-3.929-1.964,3.929Z" transform="translate(-152.7 -121.432)" fill="#717d87"/>
        <path id="Path_7" data-name="Path 7" d="M184.957,121.7v9.643h-2.232v-6.7l-4.2,5.179h-.089l-4.2-5.179v6.7H172.1V121.7h2.411l4.107,5.089,4.107-5.089Z" transform="translate(-154.779 -121.432)" fill="#717d87"/>
        <path id="Path_8" data-name="Path 8" d="M199.311,129.468v1.875H189.4V121.7h9.821v1.875h-7.589v1.964h6.339v1.875h-6.339v2.143h7.679Z" transform="translate(-156.632 -121.432)" fill="#717d87"/>
        <path id="Path_9" data-name="Path 9" d="M211.082,131.343l-2.768-3.3h-3.482v3.3H202.6V121.7h6.7c2.321,0,4.107,1.071,4.107,3.214a3.068,3.068,0,0,1-2.679,3.036l2.946,3.393Zm-1.875-5.089c1.161,0,2.054-.268,2.054-1.339s-.893-1.339-2.054-1.339h-4.375v2.679Z" transform="translate(-158.046 -121.432)" fill="#717d87"/>
        <path id="Path_10" data-name="Path 10" d="M224.7,129.289h-5.8l-1.071,2.054H215.5l5.089-9.643H223l5.089,9.643h-2.321ZM223.8,127.5l-1.964-3.929-1.964,3.929Z" transform="translate(-159.429 -121.432)" fill="#717d87"/>
        <path id="Path_11" data-name="Path 11" d="M239.582,131.343l-3.75-4.554-2.5,2.143v2.411H231.1V121.7h2.232v4.911l5.714-4.911H241.9l-4.464,3.839,4.732,5.8Z" transform="translate(-161.1 -121.432)" fill="#717d87"/>
        <path id="Path_12" data-name="Path 12" d="M244.9,131.343V121.7h2.232v9.643Z" transform="translate(-162.579 -121.432)" fill="#717d87"/>
        <path id="Path_13" data-name="Path 13" d="M263.1,128.1l2.054.982a6.257,6.257,0,0,1-5.268,2.5c-3.661,0-5.982-1.875-5.982-5.089s2.321-5.089,6.071-5.089a6.153,6.153,0,0,1,5.179,2.411l-2.054.982a3.389,3.389,0,0,0-3.125-1.518c-2.321,0-3.839,1.071-3.839,3.214s1.518,3.214,3.839,3.214A3.37,3.37,0,0,0,263.1,128.1Z" transform="translate(-163.543 -121.4)" fill="#717d87"/>
        <path id="Path_14" data-name="Path 14" d="M267.5,126.489c0-3.214,2.411-5.089,6.161-5.089s6.161,1.875,6.161,5.089-2.411,5.089-6.161,5.089S267.5,129.7,267.5,126.489Zm10,0c0-2.054-1.518-3.214-3.929-3.214s-3.929,1.161-3.929,3.214,1.518,3.214,3.929,3.214S277.5,128.543,277.5,126.489Z" transform="translate(-165 -121.4)" fill="#717d87"/>
        <path id="Path_15" data-name="Path 15" d="M296.357,121.7v9.643h-2.232v-6.7l-4.2,5.179h-.089l-4.2-5.179v6.7H283.5V121.7h2.411l4.107,5.089,4.107-5.089Z" transform="translate(-166.714 -121.432)" fill="#717d87"/>
        <path id="Path_16" data-name="Path 16" d="M311.514,124.914c0,2.143-1.7,3.3-4.107,3.3h-4.375v3.125H300.8V121.7h6.607C309.907,121.7,311.514,122.861,311.514,124.914Zm-2.232,0c0-1.071-.8-1.429-2.054-1.429h-4.2v2.857h4.2C308.479,126.343,309.282,126.075,309.282,124.914Z" transform="translate(-168.568 -121.432)" fill="#717d87"/>
        <path id="Path_17" data-name="Path 17" d="M321.3,129.289h-5.8l-1.071,2.054H312.1l5.089-9.643H319.6l5.089,9.643h-2.411ZM320.4,127.5l-1.964-3.929-1.964,3.929Z" transform="translate(-169.779 -121.432)" fill="#717d87"/>
        <path id="Path_18" data-name="Path 18" d="M338.682,121.7v9.643h-1.964l-6.875-6.964v6.964H327.7V121.7h2.321l6.518,6.607V121.7h2.143Z" transform="translate(-171.45 -121.432)" fill="#717d87"/>
        <path id="Path_19" data-name="Path 19" d="M343.989,121.7l3.214,4.554,3.214-4.554h2.5l-4.643,6.339v3.3h-2.232v-3.3L341.4,121.7h2.589Z" transform="translate(-172.918 -121.432)" fill="#717d87"/>
      </g>
      <g id="Group_10" data-name="Group 10" transform="translate(140.311 72.211)">
        <g id="Group_9" data-name="Group 9">
          <path id="Path_20" data-name="Path 20" d="M173.486,94.036l5.714,2.946c-2.143,3.393-6.786,5.982-12.946,5.982-8.661,0-14.554-4.464-14.554-12.232S157.593,78.5,166.521,78.5c5.982,0,10.536,2.679,12.589,5.982l-5.8,2.946c-1.518-2.411-3.839-3.482-6.964-3.482-4.732,0-7.857,2.411-7.857,6.786s3.125,6.786,7.857,6.786A7.592,7.592,0,0,0,173.486,94.036Z" transform="translate(-151.7 -76.089)" fill="#253746"/>
          <path id="Path_21" data-name="Path 21" d="M184.6,93.721c0-6.071,4.643-9.821,11.964-9.821s11.875,3.75,11.875,9.821-4.643,9.821-11.875,9.821C189.243,103.632,184.6,99.793,184.6,93.721Zm17.679,0c0-3.214-2.411-4.911-5.714-4.911s-5.714,1.607-5.714,4.911c0,3.214,2.411,4.911,5.714,4.911S202.279,96.936,202.279,93.721Z" transform="translate(-155.225 -76.668)" fill="#253746"/>
          <path id="Path_22" data-name="Path 22" d="M215.2,102.839V84.625h6.518v2.946a8.875,8.875,0,0,1,7.5-3.571c5.268,0,8.125,3.393,8.125,8.125v10.714h-6.518V92.571c0-2.411-1.339-3.75-3.839-3.75a6.012,6.012,0,0,0-5.357,3.214v10.8Z" transform="translate(-158.504 -76.679)" fill="#253746"/>
          <path id="Path_23" data-name="Path 23" d="M265.254,97.114c0,3.571-3.393,6.518-10.536,6.518a19.829,19.829,0,0,1-11.518-3.393l2.857-3.482a15.086,15.086,0,0,0,8.839,2.5c2.589,0,4.286-.357,4.286-1.518,0-1.071-1.518-1.429-4.911-1.607-5.268-.357-10.357-1.786-10.357-5.982,0-3.75,3.75-6.25,10.536-6.25a20.389,20.389,0,0,1,10,2.5l-2.768,3.661a13.665,13.665,0,0,0-7.321-1.786c-1.964,0-4.375.268-4.375,1.429,0,1.071,1.964,1.25,5,1.429C260.789,91.4,265.254,93.1,265.254,97.114Z" transform="translate(-161.504 -76.668)" fill="#253746"/>
          <path id="Path_24" data-name="Path 24" d="M286.275,101.339a11.771,11.771,0,0,1-6.429,1.786c-4.107,0-7.232-2.232-7.232-6.7V88.75H269.4V84.2h3.214V80h6.518v4.286H286.1v4.554h-6.964v6.607c0,1.607,1.25,2.589,2.946,2.589a6.625,6.625,0,0,0,3.125-.893Z" transform="translate(-164.311 -76.25)" fill="#253746"/>
          <path id="Path_25" data-name="Path 25" d="M291.6,102.861V84.646h6.518v3.393c1.518-2.589,4.375-3.839,7.589-3.839v5.357c-3.839,0-6.7,1.518-7.589,4.464v8.75H291.6Z" transform="translate(-166.689 -76.7)" fill="#253746"/>
          <path id="Path_26" data-name="Path 26" d="M332.443,84.7v18.214h-6.518v-2.857a8.875,8.875,0,0,1-7.5,3.571c-5.268,0-8.125-3.393-8.125-8.125V84.789h6.518V95.057c0,2.411,1.339,3.75,3.839,3.75a6.012,6.012,0,0,0,5.357-3.214V84.7Z" transform="translate(-168.693 -76.754)" fill="#253746"/>
          <path id="Path_27" data-name="Path 27" d="M350.886,103.643c-7.232,0-11.786-3.839-11.786-9.821,0-6.071,4.554-9.821,11.786-9.821,5.446,0,8.839,2.411,10.357,5.268L355.707,91.5c-.982-1.875-2.679-2.5-4.732-2.5-3.3,0-5.625,1.7-5.625,4.911s2.321,4.911,5.625,4.911a5.339,5.339,0,0,0,4.911-2.589l5.536,2.232C359.814,101.232,356.332,103.643,350.886,103.643Z" transform="translate(-171.779 -76.679)" fill="#253746"/>
          <path id="Path_28" data-name="Path 28" d="M382.175,101.339a11.771,11.771,0,0,1-6.429,1.786c-4.107,0-7.232-2.232-7.232-6.7V88.75H365.3V84.2h3.214V80h6.518v4.286H382v4.554h-6.964v6.607c0,1.607,1.25,2.589,2.946,2.589a6.625,6.625,0,0,0,3.125-.893Z" transform="translate(-174.586 -76.25)" fill="#253746"/>
          <path id="Path_29" data-name="Path 29" d="M387,78.836c0-1.875,1.518-3.036,3.75-3.036,2.143,0,3.75,1.25,3.75,3.036s-1.518,3.036-3.75,3.036C388.518,81.961,387,80.711,387,78.836Zm7.054,23.125h-6.518V83.746h6.518Z" transform="translate(-176.911 -75.8)" fill="#253746"/>
          <path id="Path_30" data-name="Path 30" d="M398.7,93.721c0-6.071,4.643-9.821,11.964-9.821s11.875,3.75,11.875,9.821-4.643,9.821-11.875,9.821C403.343,103.632,398.7,99.793,398.7,93.721Zm17.679,0c0-3.214-2.411-4.911-5.714-4.911s-5.714,1.607-5.714,4.911c0,3.214,2.411,4.911,5.714,4.911S416.379,96.936,416.379,93.721Z" transform="translate(-178.164 -76.668)" fill="#253746"/>
          <path id="Path_31" data-name="Path 31" d="M429.4,102.839V84.625h6.518v2.946a8.875,8.875,0,0,1,7.5-3.571c5.268,0,8.125,3.393,8.125,8.125v10.714h-6.518V92.571c0-2.411-1.339-3.75-3.839-3.75a6.012,6.012,0,0,0-5.357,3.214v10.8Z" transform="translate(-181.454 -76.679)" fill="#253746"/>
        </g>
      </g>
      <g id="Group_12" data-name="Group 12" transform="translate(141.739 42.3)">
        <g id="Group_11" data-name="Group 11" transform="translate(0)">
          <path id="Path_32" data-name="Path 32" d="M180.264,62.5c0,4.018-3.571,6.339-9.2,6.339H153.3V45.8h16.429c5.625,0,9.2,2.232,9.2,5.982,0,2.589-1.786,4.911-5.268,5.089C177.229,57.05,180.264,59.014,180.264,62.5ZM159.818,55h8.75c2.232,0,3.75-.536,3.75-2.232,0-1.786-1.518-2.232-3.75-2.232h-8.75Zm13.571,6.7c0-1.875-1.429-2.411-3.75-2.411h-9.732V64.1h9.732C171.961,64.193,173.389,63.568,173.389,61.693Z" transform="translate(-153.3 -42.675)" fill="#253746"/>
          <path id="Path_33" data-name="Path 33" d="M187.5,68.675V44.3h6.518V68.675Z" transform="translate(-156.964 -42.514)" fill="#253746"/>
          <path id="Path_34" data-name="Path 34" d="M221.843,51.2V69.414h-6.518V66.557a8.875,8.875,0,0,1-7.5,3.571c-5.268,0-8.125-3.393-8.125-8.125V51.289h6.518V61.557c0,2.411,1.339,3.75,3.839,3.75a6.012,6.012,0,0,0,5.357-3.214V51.2Z" transform="translate(-158.271 -43.254)" fill="#253746"/>
          <path id="Path_35" data-name="Path 35" d="M240.989,65.5a9.737,9.737,0,0,0,6.429-2.054l3.3,3.482c-2.589,2.321-5.982,3.214-10.089,3.214-7.768,0-12.232-3.75-12.232-9.821s4.464-9.821,11.7-9.821c6.607,0,11.25,3.3,11.25,9.732a3.5,3.5,0,0,1-.179,1.518H234.561C235.1,64.339,237.329,65.5,240.989,65.5Zm-6.25-7.411L245.364,58c-.714-2.143-2.411-3.125-5.179-3.125S235.454,55.946,234.739,58.089Z" transform="translate(-161.346 -43.179)" fill="#253746"/>
          <path id="Path_36" data-name="Path 36" d="M264.418,66.65v9.286H257.9V51.114h6.518v2.679a9.238,9.238,0,0,1,7.5-3.393c5.714,0,9.643,3.75,9.643,9.821,0,5.982-3.929,9.732-9.643,9.732A9.181,9.181,0,0,1,264.418,66.65Zm0-8.661v4.464a6.759,6.759,0,0,0,5.625,2.589c3.393,0,5.357-1.786,5.357-4.821s-1.875-4.821-5.357-4.821A6.871,6.871,0,0,0,264.418,57.989Z" transform="translate(-164.507 -43.168)" fill="#253746"/>
          <path id="Path_37" data-name="Path 37" d="M287.2,60.221c0-6.071,4.643-9.821,11.964-9.821s11.875,3.75,11.875,9.821-4.643,9.821-11.875,9.821C291.754,70.043,287.2,66.293,287.2,60.221Zm17.679,0c0-3.214-2.411-4.911-5.714-4.911s-5.714,1.607-5.714,4.911c0,3.214,2.411,4.911,5.714,4.911C302.468,65.043,304.879,63.436,304.879,60.221Z" transform="translate(-167.646 -43.168)" fill="#253746"/>
          <path id="Path_38" data-name="Path 38" d="M317.3,45.336c0-1.875,1.518-3.036,3.75-3.036,2.143,0,3.75,1.25,3.75,3.036,0,1.875-1.518,3.036-3.75,3.036S317.3,47.211,317.3,45.336Zm6.964,23.125h-6.518V50.246h6.518Z" transform="translate(-170.871 -42.3)" fill="#253746"/>
          <path id="Path_39" data-name="Path 39" d="M330.2,69.329V51.114h6.518v2.857a8.875,8.875,0,0,1,7.5-3.571c5.268,0,8.125,3.393,8.125,8.125V69.239h-6.518V59.061c0-2.411-1.339-3.75-3.839-3.75a6.012,6.012,0,0,0-5.357,3.214v10.8Z" transform="translate(-172.254 -43.168)" fill="#253746"/>
          <path id="Path_40" data-name="Path 40" d="M374.775,67.829a11.771,11.771,0,0,1-6.429,1.786c-4.107,0-7.232-2.232-7.232-6.7V55.239H357.9V50.686h3.214V46.4h6.518v4.286H374.6v4.554h-6.964v6.607c0,1.607,1.25,2.589,2.946,2.589a6.624,6.624,0,0,0,3.125-.893Z" transform="translate(-175.221 -42.739)" fill="#253746"/>
        </g>
      </g>
    </g>
  </g>
</svg>
